# xmcd
#
# Track frame offsets:
#	150
#	14384
#	31682
#	44850
#	65361
#	78421
#	93470
#	109101
#	123491
#	140689
#	158440
#	176930
#	196589
#	212683
#	232735
#	249337
#	264509
#	278524
#	292314
#	308778
#
# Disc length: 4275 seconds
#
# Revision: 2591800430
# Processed by: cddbd v1.5.2PL0 Copyright (c) Steve Scherf et al.
# Submitted via: EZCDAudioConverter 8.0.7.1
#
DISCID=1610b114
DTITLE=Suzy Bogguss - 20 Greatest Hits
DYEAR=2002
DGENRE=Country
TTITLE0=Drive South
TTITLE1=Aces
TTITLE2=I Want To Be A Cowboy's Sweetheart
TTITLE3=Letting Go
TTITLE4=Outbound Plane
TTITLE5=Just Like The Weather
TTITLE6=Somebody To Love
TTITLE7=In The Jailhouse Now
TTITLE8=Cross My Broken Heart
TTITLE9=Someday Soon
TTITLE10=Hey Cinderella
TTITLE11=Forget About It
TTITLE12=Cold Day In July
TTITLE13=One More For The Road
TTITLE14=Far And Away
TTITLE15=Diamonds And Tears
TTITLE16=Under The Gun
TTITLE17=From Where I Stand
TTITLE18=Eat At Joe's
TTITLE19=Give Me Some Wheels
EXTD=
EXTT0=
EXTT1=
EXTT2=
EXTT3=
EXTT4=
EXTT5=
EXTT6=
EXTT7=
EXTT8=
EXTT9=
EXTT10=
EXTT11=
EXTT12=
EXTT13=
EXTT14=
EXTT15=
EXTT16=
EXTT17=
EXTT18=
EXTT19=
PLAYORDER=
